# xmcd
#
# Track frame offsets:
#	150
#	22605
#	43177
#	68287
#	92232
#	118381
#	135517
#	152652
#	172747
#	193507
#	209986
#	227119
#	245785
#	265006
#	281970
#	297623
#	315583
#	335624
#
# Disc length: 4662
#
# Revision: 2
# Processed by: cddbd v1.5.1PL0 Copyright (c) Steve Scherf et al.
# Submitted via: audiograbber 1.83.01
# Normalized: r1:DSETVAR1
#
DISCID=10123412
DTITLE=Various Artist - Car Tunes
DYEAR=2000
DGENRE=Ballad
TTITLE0=Everything But The Girl - Missing (Todd Terry Remix)
TTITLE1=Phil Collins - True Collins
TTITLE2=Simpley Red - Fairground
TTITLE3=Paula Cole - I Don't Want To Wait
TTITLE4=Escape Club - I'll Be There
TTITLE5=Hootie and The Blowfish - Only Wanna Be With You
TTITLE6=A-Ha - Take On Me
TTITLE7=Yes - Owner Of A Lonely Heart
TTITLE8=K. D. Lang - Constant Craving
TTITLE9=Fleetwood Mac - Little Lies
TTITLE10=Inner Circle - Sweat (A La La La La Long)
TTITLE11=Jimmy Nail - Ain't No Doubt
TTITLE12=Marc Cohn - Walking in Memphis
TTITLE13=Alphaville - Forever Young
TTITLE14=Mr. Big - To Be With You
TTITLE15=Donna Lewis - I Love You Always Forever
TTITLE16=Dakota Moon - A Promise I Make
TTITLE17=Bread - Everything I Own
EXTD=
EXTT0=
EXTT1=
EXTT2=
EXTT3=
EXTT4=
EXTT5=
EXTT6=
EXTT7=
EXTT8=
EXTT9=
EXTT10=
EXTT11=
EXTT12=
EXTT13=
EXTT14=
EXTT15=
EXTT16=
EXTT17=
PLAYORDER=
